<svg width="32" height="32" viewBox="0 0 32 32" fill="none" xmlns="http://www.w3.org/2000/svg">
<path d="M16.6261 10.0484L16.8087 11.6736L17.5661 10.2242L20.1625 5.25527L18.7338 10.6765L18.317 12.2579L19.5468 11.1799L23.7629 7.48452L20.4722 12.0235L19.5123 13.3476L21.0485 12.7867L26.3148 10.8638L21.6067 13.9076L20.2333 14.7955L21.8684 14.8274L27.4737 14.9368L21.9839 16.0743L20.3826 16.4061L21.8957 17.0265L27.083 19.1534L21.553 18.2309L19.9399 17.9618L21.1268 19.087L25.1954 22.9441L20.3721 20.0863L18.9652 19.2526L19.6654 20.7305L22.066 25.7969L18.6008 21.3897L17.5899 20.1041L17.709 21.7352L18.1173 27.3266L16.4782 21.9653L16 20.4013L15.5218 21.9653L13.8827 27.3266L14.291 21.7352L14.4101 20.1041L13.3992 21.3897L9.93401 25.7969L12.3346 20.7305L13.0348 19.2526L11.6279 20.0863L6.80458 22.9441L10.8732 19.087L12.0601 17.9618L10.447 18.2309L4.91704 19.1534L10.1043 17.0265L11.6174 16.4061L10.0161 16.0743L4.52632 14.9368L10.1316 14.8274L11.7667 14.7955L10.3933 13.9076L5.68518 10.8638L10.9515 12.7867L12.4877 13.3476L11.5278 12.0235L8.23712 7.48452L12.4532 11.1799L13.683 12.2579L13.2662 10.6765L11.8375 5.25528L14.4339 10.2242L15.1913 11.6736L15.3739 10.0484L16 4.47716L16.6261 10.0484Z" stroke="#40444E"/>
</svg>
