<svg width="335" height="516" viewBox="0 0 335 516" fill="none" xmlns="http://www.w3.org/2000/svg">
<path d="M181.956 296.956L224 279.541L266.044 296.956L283.459 339L266.044 381.044L224 398.459L181.956 381.044L164.541 339L181.956 296.956Z" stroke="#40444E"/>
<path d="M229.956 413.956L272 396.541L314.044 413.956L331.459 456L314.044 498.044L272 515.459L229.956 498.044L212.541 456L229.956 413.956Z" stroke="#40444E"/>
<path d="M232.956 181.956L275 164.541L317.044 181.956L334.459 224L317.044 266.044L275 283.459L232.956 266.044L215.541 224L232.956 181.956Z" stroke="#40444E"/>
<path d="M65.9563 17.9563L108 0.541196L150.044 17.9563L167.459 60L150.044 102.044L108 119.459L65.9563 102.044L48.5412 60L65.9563 17.9563Z" stroke="#40444E"/>
<path d="M17.9563 362.956L60 345.541L102.044 362.956L119.459 405L102.044 447.044L60 464.459L17.9563 447.044L0.541196 405L17.9563 362.956Z" stroke="#40444E"/>
<path d="M65.9563 248.956L108 231.541L150.044 248.956L167.459 291L150.044 333.044L108 350.459L65.9563 333.044L48.5412 291L65.9563 248.956Z" stroke="#8D8F93"/>
<path d="M116.956 133.956L159 116.541L201.044 133.956L218.459 176L201.044 218.044L159 235.459L116.956 218.044L99.5412 176L116.956 133.956Z" stroke="#8D8F93"/>
</svg>
