<svg width="14" height="14" viewBox="0 0 14 14" fill="none" xmlns="http://www.w3.org/2000/svg">
<path d="M11.3641 7.19688L12.0258 3.53828C12.0315 3.50681 12.0305 3.4745 12.023 3.44343C12.0154 3.41235 12.0015 3.38319 11.982 3.35781C11.9609 3.33366 11.9348 3.31433 11.9056 3.30112C11.8763 3.28791 11.8446 3.28114 11.8125 3.28125H2.80547L2.51016 1.63516C2.48321 1.48354 2.4038 1.34623 2.28583 1.24725C2.16786 1.14828 2.01884 1.09394 1.86484 1.09375H0.875C0.816984 1.09375 0.761344 1.1168 0.72032 1.15782C0.679297 1.19884 0.65625 1.25448 0.65625 1.3125C0.65625 1.37052 0.679297 1.42616 0.72032 1.46718C0.761344 1.5082 0.816984 1.53125 0.875 1.53125H1.86484C1.91586 1.53174 1.9651 1.55004 2.00405 1.583C2.043 1.61595 2.0692 1.66149 2.07812 1.71172L3.60391 10.0953C3.38941 10.2514 3.22722 10.4687 3.13872 10.7188C3.05022 10.9688 3.03956 11.2398 3.10815 11.496C3.17673 11.7523 3.32134 11.9817 3.52292 12.1541C3.72449 12.3265 3.97358 12.4338 4.23734 12.4618C4.50111 12.4899 4.76717 12.4373 5.00048 12.3111C5.23378 12.1849 5.42337 11.991 5.54426 11.7549C5.66516 11.5188 5.71168 11.2516 5.6777 10.9885C5.64372 10.7255 5.53083 10.4789 5.35391 10.2812H9.08359C8.88327 10.5052 8.76586 10.7912 8.75098 11.0913C8.73611 11.3914 8.82467 11.6875 9.00187 11.9302C9.17906 12.1729 9.43417 12.3474 9.72457 12.4247C10.015 12.5019 10.3231 12.4771 10.5974 12.3545C10.8718 12.2319 11.0957 12.0189 11.2319 11.751C11.368 11.4831 11.4082 11.1767 11.3456 10.8828C11.2829 10.5889 11.1214 10.3254 10.8879 10.1362C10.6543 9.94714 10.363 9.84389 10.0625 9.84375H4.00312L3.68047 8.09375H10.2867C10.5429 8.09409 10.7911 8.0045 10.988 7.84059C11.1848 7.67669 11.3179 7.44887 11.3641 7.19688ZM5.25 11.1562C5.25 11.3293 5.19868 11.4985 5.10254 11.6424C5.00639 11.7863 4.86973 11.8984 4.70985 11.9646C4.54996 12.0309 4.37403 12.0482 4.2043 12.0144C4.03456 11.9807 3.87865 11.8973 3.75628 11.775C3.63391 11.6526 3.55057 11.4967 3.51681 11.327C3.48305 11.1572 3.50038 10.9813 3.56661 10.8214C3.63283 10.6615 3.74498 10.5249 3.88888 10.4287C4.03277 10.3326 4.20194 10.2812 4.375 10.2812C4.60706 10.2812 4.82962 10.3734 4.99372 10.5375C5.15781 10.7016 5.25 10.9242 5.25 11.1562ZM10.9375 11.1562C10.9375 11.3293 10.8862 11.4985 10.79 11.6424C10.6939 11.7863 10.5572 11.8984 10.3973 11.9646C10.2375 12.0309 10.0615 12.0482 9.8918 12.0144C9.72206 11.9807 9.56615 11.8973 9.44378 11.775C9.32141 11.6526 9.23807 11.4967 9.20431 11.327C9.17055 11.1572 9.18788 10.9813 9.2541 10.8214C9.32033 10.6615 9.43248 10.5249 9.57638 10.4287C9.72027 10.3326 9.88944 10.2812 10.0625 10.2812C10.2946 10.2812 10.5171 10.3734 10.6812 10.5375C10.8453 10.7016 10.9375 10.9242 10.9375 11.1562ZM2.8875 3.71875H11.55L10.932 7.11484C10.9061 7.26694 10.827 7.40487 10.7088 7.50404C10.5906 7.6032 10.441 7.65715 10.2867 7.65625H3.60391L2.8875 3.71875Z" fill="white"/>
</svg>
