<svg width="32" height="32" viewBox="0 0 32 32" fill="none" xmlns="http://www.w3.org/2000/svg">
<path d="M22.5 11.6375V10.5C22.5 7.7 17.8875 5.5 12 5.5C6.1125 5.5 1.5 7.7 1.5 10.5V15.5C1.5 17.8875 4.8625 19.8375 9.5 20.3625V21.5C9.5 24.3 14.1125 26.5 20 26.5C25.8875 26.5 30.5 24.3 30.5 21.5V16.5C30.5 14.1375 27.2375 12.175 22.5 11.6375ZM29.5 16.5C29.5 18.4375 25.6875 20.5 20 20.5C18.8274 20.5016 17.6567 20.4054 16.5 20.2125V20.0375C20.075 19.25 22.5 17.5375 22.5 15.5V12.65C26.525 13.125 29.5 14.7375 29.5 16.5ZM10.0375 19.4125H10C9.475 19.3625 8.975 19.3 8.5 19.2125V15.225C9.65752 15.4094 10.8279 15.5014 12 15.5C13.1721 15.5014 14.3425 15.4094 15.5 15.225V19.2125C14.3439 19.4096 13.1728 19.5058 12 19.5C11.3125 19.5 10.6625 19.475 10.0375 19.4125ZM21.5 12.6625V15.5C21.5 16.8625 19.6 18.2875 16.5 19.0125V15.0375C18.7 14.55 20.475 13.7125 21.5 12.6625ZM12 6.5C17.6875 6.5 21.5 8.5625 21.5 10.5C21.5 12.4375 17.6875 14.5 12 14.5C6.3125 14.5 2.5 12.4375 2.5 10.5C2.5 8.5625 6.3125 6.5 12 6.5ZM2.5 15.5V12.6625C3.525 13.7125 5.3 14.55 7.5 15.0375V19.0125C4.4 18.2875 2.5 16.8625 2.5 15.5ZM10.5 21.5V20.45C10.9875 20.4875 11.4875 20.5 12 20.5C12.5125 20.5 13.0125 20.4875 13.5 20.45C14.152 20.6894 14.8204 20.8815 15.5 21.025V25.0125C12.4 24.2875 10.5 22.8625 10.5 21.5ZM16.5 25.2125V21.225C17.6578 21.4069 18.828 21.4989 20 21.5C21.1721 21.5014 22.3425 21.4094 23.5 21.225V25.2125C21.1824 25.5958 18.8176 25.5958 16.5 25.2125ZM29.5 21.5C29.5 22.8625 27.6 24.2875 24.5 25.0125V21.0375C26.7 20.55 28.475 19.7125 29.5 18.6625V21.5Z" fill="#181A1E"/>
</svg>
