<svg width="355" height="730" viewBox="0 0 355 730" fill="none" xmlns="http://www.w3.org/2000/svg">
<path d="M189.806 555.788L190.762 555.947L237.086 449.672L208.365 561.99L209.218 562.452L287.539 476.976L223.905 573.883L224.562 574.597L326.394 519.183L234.742 590.178L235.131 591.066L349.438 571.719L239.7 609.108L239.78 610.075L354.176 628.891L238.243 628.622L238.005 629.563L340.093 684.504L230.529 646.606L229.999 647.418L308.715 732.53L217.394 661.111L216.628 661.707L263.444 767.767L200.26 670.565L199.343 670.88L209.184 786.394L180.985 673.943H180.015L151.816 786.394L161.657 670.88L160.74 670.565L97.5562 767.767L144.372 661.707L143.606 661.111L52.2848 732.53L131.001 647.418L130.471 646.606L20.9074 684.504L122.995 629.563L122.757 628.622L6.8244 628.891L121.22 610.075L121.3 609.108L11.5617 571.719L125.869 591.066L126.258 590.178L34.6063 519.183L136.438 574.597L137.095 573.883L73.4606 476.976L151.782 562.452L152.635 561.99L123.914 449.672L170.238 555.947L171.194 555.788L180.5 440.229L189.806 555.788Z" stroke="#B1D3BF"/>
<path d="M257.569 69.1765L258.526 69.3361L283.759 11.4454L268.115 72.6279L268.968 73.0896L311.631 26.5288L276.968 79.3165L277.625 80.0301L333.095 49.8448L283.17 88.5174L283.559 89.4056L345.825 78.8669L286.048 99.2335L286.128 100.2L348.442 110.45L285.291 110.304L285.053 111.244L340.662 141.172L280.981 120.528L280.45 121.34L323.329 167.702L273.584 128.799L272.818 129.395L298.32 187.168L263.902 134.22L262.985 134.535L268.346 197.458L252.985 136.203H252.015L236.654 197.458L242.015 134.535L241.098 134.22L206.68 187.168L232.182 129.395L231.416 128.799L181.671 167.702L224.55 121.34L224.019 120.528L164.338 141.172L219.947 111.244L219.709 110.304L156.558 110.45L218.872 100.2L218.952 99.2335L159.175 78.8669L221.441 89.4056L221.83 88.5174L171.905 49.8448L227.375 80.0301L228.032 79.3165L193.369 26.5287L236.032 73.0896L236.885 72.6279L221.241 11.4453L246.474 69.3361L247.431 69.1765L252.5 6.22916L257.569 69.1765Z" stroke="#B1D3BF"/>
</svg>
