<svg width="180" height="179" viewBox="0 0 180 179" fill="none" xmlns="http://www.w3.org/2000/svg">
<path d="M97.561 40.4387L97.9528 42.3415L98.9412 40.669L118.015 8.39376L113.244 45.5791L112.997 47.506L114.475 46.2451L142.995 21.912L126.408 55.5332L125.548 57.2755L127.356 56.5627L162.232 42.8086L135.627 69.2223L134.248 70.5911L136.189 70.5038L173.641 68.8192L139.901 85.163L138.152 86.01L140.016 86.5576L175.987 97.1251L138.768 101.628L136.839 101.861L138.424 102.984L169.014 124.659L132.35 116.833L130.45 116.427L131.584 118.004L153.479 148.437L121.343 129.13L119.677 128.129L120.238 129.989L131.065 165.882L106.939 137.187L105.689 135.7L105.615 137.641L104.201 175.104L90.6997 140.13L90 138.317L89.3003 140.13L75.7986 175.104L74.3846 137.641L74.3113 135.7L73.0611 137.187L48.9347 165.882L59.7617 129.989L60.3228 128.129L58.6574 129.13L26.5208 148.437L48.4156 118.004L49.5502 116.427L47.6502 116.833L10.986 124.659L41.5758 102.984L43.161 101.861L41.2323 101.628L4.01347 97.1251L39.9835 86.5576L41.8475 86.01L40.0991 85.163L6.35898 68.8192L43.8113 70.5038L45.7521 70.5911L44.3734 69.2223L17.7683 42.8087L52.6444 56.5627L54.4517 57.2755L53.5921 55.5332L37.005 21.912L65.5255 46.2451L67.0034 47.506L66.7562 45.5791L61.9845 8.39374L81.0588 40.669L82.0472 42.3415L82.439 40.4387L90 3.71878L97.561 40.4387Z" stroke="#B1D3BF" stroke-width="1.5"/>
</svg>
