<svg width="88" height="88" viewBox="0 0 88 88" fill="none" xmlns="http://www.w3.org/2000/svg">
<path d="M46.9877 14.4005L47.3065 15.7113L47.919 14.5093L53.6592 3.24482L53.7332 15.8873L53.7412 17.2364L54.6144 16.208L62.7976 6.57094L59.9541 18.8897L59.6507 20.2043L60.7375 19.405L70.9226 11.9149L65.3149 23.2459L64.7165 24.455L65.9584 23.9279L77.5963 18.9885L69.5266 28.7209L68.6655 29.7594L69.9954 29.5329L82.4587 27.4105L72.3621 35.0195L71.2847 35.8315L72.6311 35.9178L85.2479 36.7269L73.6687 41.8024L72.4331 42.344L73.7232 42.7385L85.8133 46.4353L73.3757 48.7037L72.0485 48.9457L73.2129 49.6271L84.1246 56.0125L71.4992 55.3514L70.1519 55.2808L71.1278 56.2124L80.2728 64.9421L68.1401 61.3872L66.8455 61.0078L67.5802 62.1393L74.4654 72.7427L63.4797 66.4856L62.3074 65.8179L62.7614 67.0883L67.0157 78.9937L57.7691 70.3718L56.7824 69.4518L56.9311 70.7926L58.3252 83.3582L51.3162 72.8363L50.5682 71.7135L50.4038 73.0525L48.8625 85.601L44.4688 73.7462L44 72.4812L43.5312 73.7462L39.1375 85.601L37.5962 73.0525L37.4318 71.7135L36.6838 72.8363L29.6748 83.3583L31.0689 70.7926L31.2176 69.4518L30.2309 70.3718L20.9843 78.9937L25.2386 67.0883L25.6926 65.8179L24.5203 66.4856L13.5346 72.7427L20.4198 62.1393L21.1545 61.0078L19.8599 61.3872L7.72724 64.9421L16.8722 56.2124L17.8481 55.2808L16.5008 55.3514L3.8754 56.0125L14.7871 49.6271L15.9515 48.9457L14.6243 48.7037L2.18668 46.4353L14.2768 42.7385L15.5669 42.344L14.3313 41.8024L2.75213 36.7269L15.369 35.9178L16.7153 35.8315L15.6379 35.0195L5.54128 27.4105L18.0046 29.5329L19.3345 29.7594L18.4734 28.7209L10.4037 18.9885L22.0416 23.9279L23.2835 24.455L22.6851 23.2459L17.0774 11.9149L27.2625 19.405L28.3493 20.2043L28.0459 18.8897L25.2024 6.57093L33.3856 16.208L34.2588 17.2364L34.2668 15.8873L34.3408 3.24482L40.081 14.5093L40.6935 15.7113L41.0123 14.4005L44 2.11583L46.9877 14.4005Z" stroke="#B1D3BF"/>
</svg>
