<svg width="259" height="1296" viewBox="0 0 259 1296" fill="none" xmlns="http://www.w3.org/2000/svg">
<path d="M113.281 760.396L114.238 760.556L135.551 711.66L122.337 763.336L123.19 763.798L159.225 724.471L129.947 769.057L130.604 769.771L177.456 744.276L135.288 776.939L135.677 777.828L188.269 768.926L137.78 786.129L137.86 787.095L190.492 795.753L137.153 795.629L136.914 796.569L183.884 821.847L133.475 804.411L132.944 805.223L169.161 844.382L127.145 811.523L126.379 812.119L147.919 860.915L118.848 816.194L117.931 816.509L122.459 869.656L109.485 817.918H108.515L95.541 869.656L100.069 816.509L99.1515 816.194L70.0814 860.915L91.6207 812.119L90.8552 811.523L48.8392 844.382L85.0558 805.223L84.5252 804.411L34.1164 821.847L81.0856 796.569L80.8475 795.629L27.5084 795.753L80.1403 787.095L80.2204 786.129L29.7313 768.926L82.3225 777.828L82.7121 776.939L40.5442 744.276L87.3956 769.771L88.0525 769.057L58.7753 724.471L94.8098 763.798L95.6629 763.336L82.449 711.66L103.762 760.556L104.719 760.396L109 707.229L113.281 760.396Z" stroke="#B1D3BF"/>
<path d="M71.1951 45.9062L72.1519 46.0658L88.057 9.57603L78.1958 48.1407L79.0489 48.6024L105.94 19.2541L84.0917 52.5274L84.7486 53.241L119.713 34.2145L88.2438 58.5907L88.6334 59.4789L127.881 52.8361L90.2021 65.6736L90.2822 66.6403L129.56 73.101L89.7545 73.0087L89.5164 73.949L124.568 92.8131L86.9495 79.801L86.4189 80.613L113.446 109.836L82.091 85.3145L81.3255 85.9102L97.3997 122.326L75.7055 88.9516L74.7881 89.2666L78.1672 128.928L68.485 90.3184H67.515L57.8328 128.928L61.2119 89.2666L60.2945 88.9516L38.6003 122.326L54.6745 85.9102L53.909 85.3145L22.5537 109.836L49.5811 80.613L49.0505 79.801L11.4319 92.8131L46.4836 73.949L46.2455 73.0087L6.4401 73.101L45.7178 66.6403L45.7979 65.6736L8.1193 52.8361L47.3666 59.4789L47.7562 58.5907L16.2875 34.2145L51.2514 53.241L51.9083 52.5274L30.0595 19.2541L56.9511 48.6024L57.8042 48.1407L47.943 9.57603L63.8481 46.0658L64.8049 45.9062L68 6.22916L71.1951 45.9062Z" stroke="#B1D3BF"/>
<path d="M150.457 400.322L151.414 400.482L158.667 383.842L154.17 401.428L155.023 401.89L167.286 388.507L157.322 403.679L157.979 404.393L173.923 395.717L159.573 406.833L159.963 407.721L177.86 404.692L160.678 410.546L160.758 411.512L178.669 414.458L160.518 414.416L160.28 415.357L176.263 423.959L159.109 418.025L158.578 418.837L170.903 432.163L156.605 420.981L155.839 421.577L163.169 438.183L153.277 422.964L152.359 423.279L153.9 441.365L149.485 423.758H148.515L144.1 441.365L145.641 423.279L144.723 422.964L134.831 438.183L142.161 421.577L141.395 420.981L127.097 432.163L139.422 418.837L138.891 418.025L121.737 423.959L137.72 415.357L137.482 414.416L119.331 414.458L137.242 411.512L137.322 410.546L120.14 404.692L138.037 407.721L138.427 406.833L124.077 395.717L140.021 404.393L140.678 403.679L130.714 388.507L142.977 401.89L143.83 401.428L139.333 383.842L146.586 400.482L147.543 400.322L149 382.229L150.457 400.322Z" stroke="#B1D3BF"/>
<path d="M268.806 1056.79L269.762 1056.95L316.086 950.672L287.365 1062.99L288.218 1063.45L366.539 977.976L302.905 1074.88L303.562 1075.6L405.394 1020.18L313.742 1091.18L314.131 1092.07L428.438 1072.72L318.7 1110.11L318.78 1111.07L433.176 1129.89L317.243 1129.62L317.005 1130.56L419.093 1185.5L309.529 1147.61L308.999 1148.42L387.715 1233.53L296.394 1162.11L295.628 1162.71L342.444 1268.77L279.26 1171.57L278.343 1171.88L288.184 1287.39L259.985 1174.94H259.015L230.816 1287.39L240.657 1171.88L239.74 1171.57L176.556 1268.77L223.372 1162.71L222.606 1162.11L131.285 1233.53L210.001 1148.42L209.471 1147.61L99.9074 1185.5L201.995 1130.56L201.757 1129.62L85.8244 1129.89L200.22 1111.07L200.3 1110.11L90.5617 1072.72L204.869 1092.07L205.258 1091.18L113.606 1020.18L215.438 1075.6L216.095 1074.88L152.461 977.976L230.782 1063.45L231.635 1062.99L202.914 950.672L249.238 1056.95L250.194 1056.79L259.5 941.229L268.806 1056.79Z" stroke="#B1D3BF"/>
</svg>
