<svg width="288" height="854" viewBox="0 0 288 854" fill="none" xmlns="http://www.w3.org/2000/svg">
<path d="M204.281 427.396L205.238 427.556L226.551 378.66L213.337 430.336L214.19 430.798L250.225 391.471L220.947 436.057L221.604 436.771L268.456 411.276L226.288 443.939L226.677 444.828L279.269 435.926L228.78 453.129L228.86 454.095L281.492 462.753L228.153 462.629L227.914 463.569L274.884 488.847L224.475 471.411L223.944 472.223L260.161 511.382L218.145 478.523L217.379 479.119L238.919 527.915L209.848 483.194L208.931 483.509L213.459 536.656L200.485 484.918H199.515L186.541 536.656L191.069 483.509L190.152 483.194L161.081 527.915L182.621 479.119L181.855 478.523L139.839 511.382L176.056 472.223L175.525 471.411L125.116 488.847L172.086 463.569L171.847 462.629L118.508 462.753L171.14 454.095L171.22 453.129L120.731 435.926L173.323 444.828L173.712 443.939L131.544 411.276L178.396 436.771L179.053 436.057L149.775 391.471L185.81 430.798L186.663 430.336L173.449 378.66L194.762 427.556L195.719 427.396L200 374.229L204.281 427.396Z" stroke="#B1D3BF"/>
<path d="M8.80569 614.788L9.76244 614.947L56.0856 508.672L27.3654 620.99L28.2185 621.452L106.539 535.976L42.9054 632.883L43.5624 633.597L145.394 578.183L53.7418 649.178L54.1315 650.066L168.438 630.719L58.7003 668.108L58.7804 669.075L173.176 687.891L57.2435 687.622L57.0054 688.563L159.093 743.504L49.5293 705.606L48.9987 706.418L127.715 791.53L36.3936 720.111L35.6282 720.707L82.4438 826.767L19.2599 729.565L18.3425 729.88L28.184 845.394L-0.0150146 732.943H-0.984985L-29.184 845.394L-19.3425 729.88L-20.2599 729.565L-83.4438 826.767L-36.6282 720.707L-37.3936 720.111L-128.715 791.53L-49.9987 706.418L-50.5293 705.606L-160.093 743.504L-58.0054 688.563L-58.2435 687.622L-174.176 687.891L-59.7804 669.075L-59.7003 668.108L-169.438 630.719L-55.1315 650.066L-54.7418 649.178L-146.394 578.183L-44.5624 633.597L-43.9054 632.883L-107.539 535.976L-29.2185 621.452L-28.3654 620.99L-57.0857 508.672L-10.7624 614.947L-9.80569 614.788L-0.5 499.229L8.80569 614.788Z" stroke="#B1D3BF"/>
<path d="M6.28143 154.396L7.23817 154.556L28.551 105.66L15.3371 157.336L16.1902 157.798L52.2247 118.471L22.9475 163.057L23.6044 163.771L70.4558 138.276L28.2879 170.939L28.6775 171.828L81.2687 162.926L30.7796 180.129L30.8597 181.095L83.4916 189.753L30.1525 189.629L29.9144 190.569L76.8836 215.847L26.4748 198.411L25.9442 199.223L62.1608 238.382L20.1448 205.523L19.3793 206.119L40.9186 254.915L11.8485 210.194L10.9311 210.509L15.459 263.656L2.48499 211.918H1.51501L-11.459 263.656L-6.93108 210.509L-7.8485 210.194L-36.9186 254.915L-15.3793 206.119L-16.1448 205.523L-58.1608 238.382L-21.9442 199.223L-22.4748 198.411L-72.8836 215.847L-25.9144 190.569L-26.1525 189.629L-79.4916 189.753L-26.8597 181.095L-26.7796 180.129L-77.2687 162.926L-24.6775 171.828L-24.2879 170.939L-66.4558 138.276L-19.6044 163.771L-18.9475 163.057L-48.2247 118.471L-12.1902 157.798L-11.3371 157.336L-24.551 105.66L-3.23817 154.556L-2.28143 154.396L2 101.229L6.28143 154.396Z" stroke="#B1D3BF"/>
<path d="M35.5816 32.0789L36.5384 32.2386L46.9006 8.46528L40.4761 33.5904L41.3291 34.052L58.8491 14.9315L44.6145 36.6092L45.2715 37.3228L68.0506 24.927L47.5486 40.8081L47.9382 41.6964L73.508 37.3686L48.9602 45.7323L49.0403 46.6989L74.6299 50.9081L48.6965 50.848L48.4584 51.7883L71.2948 64.0783L46.786 55.6009L46.2555 56.4129L63.864 75.452L43.4358 59.4759L42.6704 60.0717L53.1428 83.7966L39.0089 62.0532L38.0915 62.3681L40.293 88.208L33.985 63.0534H33.015L26.707 88.208L28.9085 62.3681L27.9911 62.0532L13.8572 83.7967L24.3296 60.0717L23.5642 59.4759L3.13603 75.452L20.7445 56.4129L20.214 55.6009L-4.29477 64.0783L18.5416 51.7883L18.3035 50.848L-7.62991 50.9081L17.9597 46.6989L18.0398 45.7323L-6.508 37.3686L19.0618 41.6964L19.4514 40.8081L-1.05059 24.927L21.7285 37.3228L22.3855 36.6092L8.1509 14.9315L25.6709 34.052L26.5239 33.5904L20.0994 8.46528L30.4616 32.2386L31.4184 32.0789L33.5 6.22911L35.5816 32.0789Z" stroke="#B1D3BF"/>
<path d="M162.457 309.322L163.414 309.482L170.667 292.842L166.17 310.428L167.023 310.89L179.286 297.507L169.322 312.679L169.979 313.393L185.923 304.717L171.573 315.833L171.963 316.721L189.86 313.692L172.678 319.546L172.758 320.512L190.669 323.458L172.518 323.416L172.28 324.357L188.263 332.959L171.109 327.025L170.578 327.837L182.903 341.163L168.605 329.981L167.839 330.577L175.169 347.183L165.277 331.964L164.359 332.279L165.9 350.365L161.485 332.758H160.515L156.1 350.365L157.641 332.279L156.723 331.964L146.831 347.183L154.161 330.577L153.395 329.981L139.097 341.163L151.422 327.837L150.891 327.025L133.737 332.959L149.72 324.357L149.482 323.416L131.331 323.458L149.242 320.512L149.322 319.546L132.14 313.692L150.037 316.721L150.427 315.833L136.077 304.717L152.021 313.393L152.678 312.679L142.714 297.507L154.977 310.89L155.83 310.428L151.333 292.842L158.586 309.482L159.543 309.322L161 291.229L162.457 309.322Z" stroke="#B1D3BF"/>
</svg>
