<svg width="24" height="24" viewBox="0 0 24 24" fill="none" xmlns="http://www.w3.org/2000/svg">
<path d="M11.4 3.60072C11.5404 3.60067 11.6764 3.64988 11.7843 3.73978C11.8922 3.82968 11.9651 3.95458 11.9904 4.09272L12 4.20072V7.80071C12.0001 8.49231 11.7613 9.16271 11.324 9.69846C10.8866 10.2342 10.2776 10.6024 9.6 10.7407V19.8007C9.60028 19.9506 9.54441 20.0953 9.44339 20.2061C9.34238 20.3169 9.20354 20.3858 9.05422 20.3994C8.90489 20.4129 8.75591 20.3701 8.6366 20.2793C8.5173 20.1884 8.43631 20.0563 8.4096 19.9087L8.4 19.8007V10.7407C7.757 10.6092 7.17483 10.2706 6.74266 9.77661C6.31049 9.28267 6.05215 8.66069 6.0072 8.00592L6 7.80071V4.20072C5.99973 4.05078 6.0556 3.90618 6.15661 3.79538C6.25763 3.68458 6.39646 3.61561 6.54579 3.60206C6.69511 3.58852 6.84409 3.63137 6.9634 3.72218C7.08271 3.81299 7.16369 3.94518 7.1904 4.09272L7.2 4.20072V7.80071C7.19981 8.17311 7.31511 8.53639 7.53003 8.8405C7.74496 9.14462 8.04891 9.37458 8.4 9.49871V4.20072C8.39973 4.05078 8.4556 3.90618 8.55661 3.79538C8.65763 3.68458 8.79647 3.61561 8.94579 3.60206C9.09511 3.58852 9.24409 3.63137 9.3634 3.72218C9.48271 3.81299 9.56369 3.94518 9.5904 4.09272L9.6 4.20072V9.49752C10.2456 9.26952 10.722 8.68392 10.7916 7.97952L10.8 7.80071V4.20072C10.8 4.04159 10.8632 3.88897 10.9757 3.77645C11.0883 3.66393 11.2409 3.60072 11.4 3.60072ZM17.4 3.60072C17.5404 3.60067 17.6764 3.64988 17.7843 3.73978C17.8922 3.82968 17.9651 3.95458 17.9904 4.09272L18 4.20072V19.8007C18.0003 19.9506 17.9444 20.0953 17.8434 20.2061C17.7424 20.3169 17.6035 20.3858 17.4542 20.3994C17.3049 20.4129 17.1559 20.3701 17.0366 20.2793C16.9173 20.1884 16.8363 20.0563 16.8096 19.9087L16.8 19.8007V13.2007H15C14.8596 13.2008 14.7236 13.1515 14.6157 13.0616C14.5078 12.9717 14.4349 12.8469 14.4096 12.7087L14.4 12.6007V6.60072C14.4 5.80507 14.7161 5.042 15.2787 4.47939C15.8413 3.91679 16.6044 3.60072 17.4 3.60072ZM16.8 12.0007V4.90272C16.1544 5.13072 15.678 5.71632 15.6084 6.42192L15.6 6.60072V12.0007H16.8V4.90272V12.0007Z" fill="#181A1E"/>
</svg>
