<svg width="344" height="248" viewBox="0 0 344 248" fill="none" xmlns="http://www.w3.org/2000/svg">
<path d="M336.571 28.3291C348.78 49.6234 341.639 79.6559 319.885 111.12C298.155 142.55 261.946 175.243 216.399 201.724C170.851 228.206 124.632 243.438 86.7384 246.674C48.8024 249.914 19.4045 241.125 7.19605 219.831C-5.0124 198.536 2.12864 168.504 23.8827 137.039C45.6122 105.61 81.8211 72.9172 127.369 46.4355C172.916 19.9538 219.136 4.72212 257.029 1.48605C294.965 -1.75366 324.363 7.0348 336.571 28.3291Z" stroke="#DFC4C1"/>
<path d="M172.626 18.0484L172.809 19.6736L173.566 18.2242L176.163 13.2553L174.734 18.6765L174.317 20.2579L175.547 19.1799L179.763 15.4845L176.472 20.0235L175.512 21.3476L177.049 20.7867L182.315 18.8638L177.607 21.9076L176.233 22.7955L177.868 22.8274L183.474 22.9368L177.984 24.0743L176.383 24.4061L177.896 25.0265L183.083 27.1534L177.553 26.2309L175.94 25.9618L177.127 27.087L181.195 30.9441L176.372 28.0863L174.965 27.2526L175.665 28.7305L178.066 33.7969L174.601 29.3897L173.59 28.1041L173.709 29.7352L174.117 35.3266L172.478 29.9653L172 28.4013L171.522 29.9653L169.883 35.3266L170.291 29.7352L170.41 28.1041L169.399 29.3897L165.934 33.7969L168.335 28.7305L169.035 27.2526L167.628 28.0863L162.805 30.9441L166.873 27.087L168.06 25.9618L166.447 26.2309L160.917 27.1534L166.104 25.0265L167.617 24.4061L166.016 24.0743L160.526 22.9368L166.132 22.8274L167.767 22.7955L166.393 21.9076L161.685 18.8638L166.951 20.7867L168.488 21.3476L167.528 20.0235L164.237 15.4845L168.453 19.1799L169.683 20.2579L169.266 18.6765L167.837 13.2553L170.434 18.2242L171.191 19.6736L171.374 18.0484L172 12.4772L172.626 18.0484Z" stroke="#DFC4C1"/>
</svg>
