<svg width="32" height="32" viewBox="0 0 32 32" fill="none" xmlns="http://www.w3.org/2000/svg">
<path d="M28.7505 16C28.7505 13.4784 28.0028 11.0135 26.602 8.91682C25.2011 6.82017 23.21 5.18597 20.8805 4.22085C18.5509 3.25574 15.9875 3.00306 13.5143 3.49476C11.0411 3.98645 8.76929 5.20045 6.98604 6.98325C5.20278 8.76604 3.98821 11.0376 3.49588 13.5106C3.00355 15.9837 3.25558 18.5472 4.2201 20.877C5.18462 23.2068 6.81831 25.1983 8.91461 26.5997C11.0109 28.001 13.4757 28.7494 15.9973 28.75H16.0005L16.0038 28.7499C19.3835 28.7452 22.6235 27.4003 25.013 25.0102C27.4026 22.62 28.7467 19.3798 28.7505 16ZM16.7505 27.2244V18.7501H20.0005C20.1994 18.7501 20.3902 18.6711 20.5308 18.5305C20.6715 18.3898 20.7505 18.199 20.7505 18.0001C20.7505 17.8012 20.6715 17.6105 20.5308 17.4698C20.3902 17.3292 20.1994 17.2501 20.0005 17.2501H16.7505V14.0001C16.7512 13.4036 16.9884 12.8317 17.4102 12.4099C17.8321 11.9881 18.404 11.7508 19.0005 11.7501H21.0005C21.1994 11.7501 21.3902 11.6711 21.5308 11.5305C21.6715 11.3898 21.7505 11.199 21.7505 11.0001C21.7505 10.8012 21.6715 10.6105 21.5308 10.4698C21.3902 10.3291 21.1994 10.2501 21.0005 10.2501H19.0005C18.0063 10.2513 17.0531 10.6467 16.3501 11.3497C15.6471 12.0527 15.2516 13.0059 15.2505 14.0001V17.2501H12.0005C11.8016 17.2501 11.6108 17.3292 11.4702 17.4698C11.3295 17.6105 11.2505 17.8012 11.2505 18.0001C11.2505 18.199 11.3295 18.3898 11.4702 18.5305C11.6108 18.6711 11.8016 18.7501 12.0005 18.7501H15.2505V27.2244C12.3383 27.0298 9.61566 25.711 7.65763 23.5465C5.69959 21.382 4.65941 18.5413 4.75675 15.6242C4.8541 12.7071 6.08135 9.94203 8.17933 7.91289C10.2773 5.88375 13.0818 4.74941 16.0005 4.74941C18.9192 4.74941 21.7237 5.88375 23.8217 7.91289C25.9197 9.94203 27.1469 12.7071 27.2443 15.6242C27.3416 18.5413 26.3014 21.382 24.3434 23.5465C22.3853 25.711 19.6627 27.0298 16.7505 27.2244Z" fill="#DFC4C1"/>
</svg>
