<svg width="852" height="1133" viewBox="0 0 852 1133" fill="none" xmlns="http://www.w3.org/2000/svg">
<g clip-path="url(#clip0_1827_35091)">
<path d="M543.888 109.754C573.894 139.76 576.973 191.198 557.444 250.283C537.926 309.337 495.864 375.873 435.869 435.869C375.873 495.864 309.338 537.926 250.283 557.444C191.198 576.973 139.76 573.894 109.754 543.888C79.7491 513.883 76.6699 462.445 96.1985 403.36C115.717 344.305 157.778 277.77 217.774 217.774C277.77 157.778 344.305 115.717 403.36 96.1984C462.445 76.6698 513.883 79.749 543.888 109.754Z" stroke="#DFC4C1"/>
<path d="M609.521 204.372C639.527 234.377 642.606 285.815 623.077 344.901C603.559 403.955 561.497 470.491 501.502 530.486C441.506 590.482 374.97 632.544 315.916 652.062C256.831 671.591 205.393 668.511 175.387 638.506C145.382 608.501 142.303 557.063 161.831 497.977C181.35 438.923 223.411 372.387 283.407 312.392C343.403 252.396 409.938 210.335 468.993 190.816C528.078 171.287 579.516 174.367 609.521 204.372Z" stroke="#DFC4C1"/>
<path d="M741.521 588.372C771.527 618.377 774.606 669.815 755.077 728.901C735.559 787.955 693.497 854.491 633.502 914.486C573.506 974.482 506.97 1016.54 447.916 1036.06C388.831 1055.59 337.393 1052.51 307.387 1022.51C277.382 992.501 274.303 941.063 293.831 881.977C313.35 822.923 355.411 756.387 415.407 696.392C475.403 636.396 541.938 594.335 600.993 574.816C660.078 555.287 711.516 558.367 741.521 588.372Z" stroke="#DFC4C1"/>
</g>
<defs>
<clipPath id="clip0_1827_35091">
<rect width="851.276" height="1132.26" fill="white"/>
</clipPath>
</defs>
</svg>
