<svg width="12" height="12" viewBox="0 0 12 12" fill="none" xmlns="http://www.w3.org/2000/svg">
<path d="M10.125 3.56296H7.95938C8.06801 3.50815 8.16761 3.43701 8.25469 3.35202C8.50084 3.10587 8.63913 2.77201 8.63913 2.42389C8.63913 2.07578 8.50084 1.74192 8.25469 1.49577C8.00853 1.24962 7.67468 1.11133 7.32656 1.11133C6.97845 1.11133 6.64459 1.24962 6.39844 1.49577C6.22969 1.66452 6.09844 1.92702 6 2.27858C5.90156 1.92702 5.77031 1.66452 5.60156 1.49577C5.35541 1.24962 5.02155 1.11133 4.67344 1.11133C4.32532 1.11133 3.99147 1.24962 3.74531 1.49577C3.49916 1.74192 3.36087 2.07578 3.36087 2.42389C3.36087 2.77201 3.49916 3.10587 3.74531 3.35202C3.83239 3.43701 3.93199 3.50815 4.04062 3.56296H1.875C1.72582 3.56296 1.58274 3.62222 1.47725 3.72771C1.37176 3.8332 1.3125 3.97627 1.3125 4.12546V5.62546C1.3125 5.77464 1.37176 5.91771 1.47725 6.0232C1.58274 6.12869 1.72582 6.18796 1.875 6.18796H2.0625V9.37546C2.0625 9.52464 2.12176 9.66771 2.22725 9.7732C2.33274 9.87869 2.47582 9.93796 2.625 9.93796H9.375C9.52418 9.93796 9.66726 9.87869 9.77275 9.7732C9.87824 9.66771 9.9375 9.52464 9.9375 9.37546V6.18796H10.125C10.2742 6.18796 10.4173 6.12869 10.5227 6.0232C10.6282 5.91771 10.6875 5.77464 10.6875 5.62546V4.12546C10.6875 3.97627 10.6282 3.8332 10.5227 3.72771C10.4173 3.62222 10.2742 3.56296 10.125 3.56296ZM6.66094 1.76296C6.83768 1.58662 7.0769 1.48723 7.32656 1.4864C7.51138 1.48845 7.69151 1.54482 7.84453 1.64848C7.99755 1.75215 8.1167 1.89853 8.18714 2.0694C8.25759 2.24028 8.27623 2.4281 8.24073 2.60948C8.20523 2.79087 8.11717 2.95781 7.9875 3.08952C7.65 3.42702 6.70781 3.53483 6.19219 3.55827C6.21563 3.04264 6.32344 2.10046 6.66094 1.76296V1.76296ZM4.0125 1.76296C4.09957 1.67579 4.20296 1.60664 4.31677 1.55946C4.43059 1.51228 4.55258 1.488 4.67578 1.488C4.79898 1.488 4.92098 1.51228 5.03479 1.55946C5.1486 1.60664 5.25199 1.67579 5.33906 1.76296C5.67656 2.10046 5.78438 3.04264 5.80781 3.55827C5.29219 3.53483 4.35 3.42702 4.0125 3.08952C3.92533 3.00245 3.85619 2.89906 3.80901 2.78525C3.76183 2.67143 3.73754 2.54944 3.73754 2.42624C3.73754 2.30304 3.76183 2.18104 3.80901 2.06723C3.85619 1.95342 3.92533 1.85003 4.0125 1.76296V1.76296ZM1.6875 5.62546V4.12546C1.6875 4.07573 1.70725 4.02804 1.74242 3.99287C1.77758 3.95771 1.82527 3.93796 1.875 3.93796H5.8125V5.81296H1.875C1.82527 5.81296 1.77758 5.7932 1.74242 5.75804C1.70725 5.72288 1.6875 5.67519 1.6875 5.62546ZM2.4375 9.37546V6.18796H5.8125V9.56296H2.625C2.57527 9.56296 2.52758 9.5432 2.49242 9.50804C2.45725 9.47288 2.4375 9.42518 2.4375 9.37546ZM9.5625 9.37546C9.5625 9.42518 9.54275 9.47288 9.50758 9.50804C9.47242 9.5432 9.42473 9.56296 9.375 9.56296H6.1875V6.18796H9.5625V9.37546ZM10.3125 5.62546C10.3125 5.67519 10.2927 5.72288 10.2576 5.75804C10.2224 5.7932 10.1747 5.81296 10.125 5.81296H6.1875V3.93796H10.125C10.1747 3.93796 10.2224 3.95771 10.2576 3.99287C10.2927 4.02804 10.3125 4.07573 10.3125 4.12546V5.62546Z" fill="#181A1E"/>
</svg>
