<svg width="32" height="32" viewBox="0 0 32 32" fill="none" xmlns="http://www.w3.org/2000/svg">
<path d="M16.001 10.25C14.8637 10.25 13.752 10.5872 12.8065 11.219C11.8609 11.8509 11.1239 12.7489 10.6887 13.7996C10.2535 14.8502 10.1396 16.0064 10.3615 17.1218C10.5833 18.2372 11.131 19.2617 11.9351 20.0659C12.7393 20.87 13.7638 21.4177 14.8792 21.6395C15.9946 21.8614 17.1507 21.7475 18.2014 21.3123C19.2521 20.8771 20.1501 20.1401 20.7819 19.1945C21.4138 18.2489 21.751 17.1372 21.751 16C21.7493 14.4755 21.1429 13.014 20.065 11.936C18.987 10.8581 17.5255 10.2517 16.001 10.25ZM16.001 20.25C15.1604 20.25 14.3387 20.0007 13.6398 19.5337C12.9409 19.0668 12.3962 18.403 12.0745 17.6264C11.7528 16.8498 11.6687 15.9953 11.8326 15.1709C11.9966 14.3464 12.4014 13.5892 12.9958 12.9948C13.5902 12.4004 14.3474 11.9956 15.1719 11.8317C15.9963 11.6677 16.8508 11.7518 17.6274 12.0735C18.404 12.3952 19.0677 12.9399 19.5347 13.6388C20.0017 14.3377 20.251 15.1594 20.251 16C20.2497 17.1268 19.8015 18.207 19.0048 19.0038C18.208 19.8005 17.1278 20.2487 16.001 20.25ZM21.501 3.75H10.501C8.7114 3.75205 6.9957 4.46387 5.73027 5.72929C4.46485 6.99472 3.75303 8.71042 3.75098 10.5V21.5C3.75303 23.2896 4.46485 25.0053 5.73027 26.2707C6.9957 27.5361 8.7114 28.2479 10.501 28.25H21.501C23.2906 28.2479 25.0063 27.5361 26.2717 26.2707C27.5371 25.0053 28.2489 23.2896 28.251 21.5V10.5C28.2489 8.71042 27.5371 6.99472 26.2717 5.72929C25.0063 4.46387 23.2906 3.75205 21.501 3.75ZM26.751 21.5C26.7494 22.8919 26.1958 24.2264 25.2116 25.2106C24.2274 26.1948 22.8929 26.7484 21.501 26.75H10.501C9.10907 26.7484 7.77462 26.1948 6.79039 25.2106C5.80616 24.2264 5.25253 22.8919 5.25098 21.5V10.5C5.25253 9.10809 5.80616 7.77364 6.79039 6.78941C7.77462 5.80518 9.10907 5.25155 10.501 5.25H21.501C22.8929 5.25155 24.2274 5.80518 25.2116 6.78941C26.1958 7.77364 26.7494 9.10809 26.751 10.5V21.5ZM23.751 9.5C23.751 9.74723 23.6777 9.9889 23.5403 10.1945C23.403 10.4 23.2078 10.5602 22.9793 10.6548C22.7509 10.7495 22.4996 10.7742 22.2571 10.726C22.0147 10.6778 21.7919 10.5587 21.6171 10.3839C21.4423 10.2091 21.3232 9.98634 21.275 9.74386C21.2268 9.50139 21.2515 9.25005 21.3461 9.02165C21.4408 8.79324 21.601 8.59801 21.8065 8.46066C22.0121 8.32331 22.2538 8.25 22.501 8.25C22.8324 8.2504 23.1501 8.38222 23.3844 8.61656C23.6188 8.85089 23.7506 9.1686 23.751 9.5Z" fill="#DFC4C1"/>
</svg>
