<svg width="125" height="19" viewBox="0 0 125 19" fill="none" xmlns="http://www.w3.org/2000/svg">
<path d="M7.168 1.2C8.624 1.2 9.888 1.44 10.96 1.92C12.048 2.4 12.88 3.088 13.456 3.984C14.032 4.88 14.32 5.944 14.32 7.176C14.32 8.392 14.032 9.456 13.456 10.368C12.88 11.264 12.048 11.952 10.96 12.432C9.888 12.912 8.624 13.152 7.168 13.152H3.376V18H0.256V1.2H7.168ZM7.024 10.512C8.384 10.512 9.416 10.224 10.12 9.648C10.824 9.072 11.176 8.248 11.176 7.176C11.176 6.104 10.824 5.28 10.12 4.704C9.416 4.128 8.384 3.84 7.024 3.84H3.376V10.512H7.024ZM27.4879 14.112H19.0879L17.4319 18H14.2159L21.7759 1.2H24.8479L32.4319 18H29.1679L27.4879 14.112ZM26.4559 11.664L23.2879 4.32L20.1439 11.664H26.4559ZM45.5605 18L42.1285 13.08C41.9845 13.096 41.7685 13.104 41.4805 13.104H37.6885V18H34.5685V1.2H41.4805C42.9365 1.2 44.2005 1.44 45.2725 1.92C46.3605 2.4 47.1925 3.088 47.7685 3.984C48.3445 4.88 48.6325 5.944 48.6325 7.176C48.6325 8.44 48.3205 9.528 47.6965 10.44C47.0885 11.352 46.2085 12.032 45.0565 12.48L48.9205 18H45.5605ZM45.4885 7.176C45.4885 6.104 45.1365 5.28 44.4325 4.704C43.7285 4.128 42.6965 3.84 41.3365 3.84H37.6885V10.536H41.3365C42.6965 10.536 43.7285 10.248 44.4325 9.672C45.1365 9.08 45.4885 8.248 45.4885 7.176ZM55.2968 3.84H49.7288V1.2H63.9848V3.84H58.4168V18H55.2968V3.84ZM73.3399 12.072V18H70.2199V12.12L63.6199 1.2H66.9559L71.8759 9.384L76.8439 1.2H79.9159L73.3399 12.072ZM100.064 9.408H103.016V16.104C102.152 16.792 101.144 17.32 99.9919 17.688C98.8399 18.056 97.6559 18.24 96.4399 18.24C94.7279 18.24 93.1839 17.872 91.8079 17.136C90.4319 16.384 89.3519 15.352 88.5679 14.04C87.7839 12.728 87.3919 11.248 87.3919 9.6C87.3919 7.952 87.7839 6.472 88.5679 5.16C89.3519 3.848 90.4319 2.824 91.8079 2.088C93.1999 1.336 94.7599 0.96 96.4879 0.96C97.8959 0.96 99.1759 1.192 100.328 1.656C101.48 2.12 102.448 2.8 103.232 3.696L101.264 5.616C99.9839 4.336 98.4399 3.696 96.6319 3.696C95.4479 3.696 94.3919 3.944 93.4639 4.44C92.5519 4.936 91.8319 5.632 91.3039 6.528C90.7919 7.424 90.5359 8.448 90.5359 9.6C90.5359 10.72 90.7919 11.728 91.3039 12.624C91.8319 13.52 92.5519 14.224 93.4639 14.736C94.3919 15.248 95.4399 15.504 96.6079 15.504C97.9199 15.504 99.0719 15.216 100.064 14.64V9.408ZM114.979 18.24C113.267 18.24 111.723 17.872 110.347 17.136C108.971 16.384 107.891 15.352 107.107 14.04C106.323 12.712 105.931 11.232 105.931 9.6C105.931 7.968 106.323 6.496 107.107 5.184C107.891 3.856 108.971 2.824 110.347 2.088C111.723 1.336 113.267 0.96 114.979 0.96C116.691 0.96 118.235 1.336 119.611 2.088C120.987 2.824 122.067 3.848 122.851 5.16C123.635 6.472 124.027 7.952 124.027 9.6C124.027 11.248 123.635 12.728 122.851 14.04C122.067 15.352 120.987 16.384 119.611 17.136C118.235 17.872 116.691 18.24 114.979 18.24ZM114.979 15.504C116.099 15.504 117.107 15.256 118.003 14.76C118.899 14.248 119.603 13.544 120.115 12.648C120.627 11.736 120.883 10.72 120.883 9.6C120.883 8.48 120.627 7.472 120.115 6.576C119.603 5.664 118.899 4.96 118.003 4.464C117.107 3.952 116.099 3.696 114.979 3.696C113.859 3.696 112.851 3.952 111.955 4.464C111.059 4.96 110.355 5.664 109.843 6.576C109.331 7.472 109.075 8.48 109.075 9.6C109.075 10.72 109.331 11.736 109.843 12.648C110.355 13.544 111.059 14.248 111.955 14.76C112.851 15.256 113.859 15.504 114.979 15.504Z" fill="white"/>
</svg>
