<svg width="286" height="352" viewBox="0 0 286 352" fill="none" xmlns="http://www.w3.org/2000/svg">
<path d="M119.956 17.9563L162 0.541196L204.044 17.9563L221.459 60L204.044 102.044L162 119.459L119.956 102.044L102.541 60L119.956 17.9563Z" stroke="#40444E"/>
<path d="M183.956 181.956L226 164.541L268.044 181.956L285.459 224L268.044 266.044L226 283.459L183.956 266.044L166.541 224L183.956 181.956Z" stroke="#40444E"/>
<path d="M17.9563 249.956L60 232.541L102.044 249.956L119.459 292L102.044 334.044L60 351.459L17.9563 334.044L0.541196 292L17.9563 249.956Z" stroke="#40444E"/>
<path d="M67.9563 133.956L110 116.541L152.044 133.956L169.459 176L152.044 218.044L110 235.459L67.9563 218.044L50.5412 176L67.9563 133.956Z" stroke="#8D8F93"/>
</svg>
