<svg width="302" height="337" viewBox="0 0 302 337" fill="none" xmlns="http://www.w3.org/2000/svg">
<path d="M135.956 70.9563L178 53.5412L220.044 70.9563L237.459 113L220.044 155.044L178 172.459L135.956 155.044L118.541 113L135.956 70.9563Z" stroke="#40444E"/>
<path d="M17.9563 17.9563L60 0.541196L102.044 17.9563L119.459 60L102.044 102.044L60 119.459L17.9563 102.044L0.541196 60L17.9563 17.9563Z" stroke="#40444E"/>
<path d="M199.956 234.956L242 217.541L284.044 234.956L301.459 277L284.044 319.044L242 336.459L199.956 319.044L182.541 277L199.956 234.956Z" stroke="#40444E"/>
<path d="M83.9563 186.956L126 169.541L168.044 186.956L185.459 229L168.044 271.044L126 288.459L83.9563 271.044L66.5412 229L83.9563 186.956Z" stroke="#8D8F93"/>
</svg>
