<svg width="32" height="32" viewBox="0 0 32 32" fill="none" xmlns="http://www.w3.org/2000/svg">
<path d="M26.75 13.9998C26.75 16.7558 25.7878 19.2741 24.0405 21.0908C22.4154 22.7806 20.2138 23.7498 18 23.7498C15.5723 23.7498 14.0567 22.8656 13.1717 22.0452L11.73 28.1716C11.7086 28.2686 11.6681 28.3603 11.6109 28.4415C11.5537 28.5228 11.4809 28.5918 11.3968 28.6447C11.3127 28.6975 11.2189 28.7331 11.1209 28.7494C11.0229 28.7658 10.9227 28.7624 10.826 28.7397C10.7293 28.7169 10.638 28.6752 10.5576 28.6169C10.4772 28.5586 10.4091 28.4849 10.3574 28.4001C10.3057 28.3153 10.2713 28.221 10.2563 28.1228C10.2413 28.0246 10.246 27.9244 10.27 27.8281L14.27 10.8281C14.2915 10.7311 14.332 10.6393 14.3892 10.5581C14.4464 10.4769 14.5192 10.4078 14.6033 10.355C14.6874 10.3021 14.7812 10.2665 14.8792 10.2502C14.9772 10.2338 15.0774 10.2372 15.1741 10.2599C15.2708 10.2827 15.362 10.3244 15.4425 10.3827C15.5229 10.441 15.591 10.5147 15.6427 10.5995C15.6944 10.6843 15.7288 10.7786 15.7438 10.8768C15.7587 10.975 15.7541 11.0752 15.73 11.1716L13.5934 20.2527C13.9442 20.7942 15.1519 22.2498 18 22.2498C21.5638 22.2498 25.25 19.1638 25.25 13.9998C25.2497 12.555 24.911 11.1303 24.2609 9.83998C23.6109 8.54964 22.6676 7.42953 21.5067 6.56941C20.3457 5.70929 18.9995 5.13307 17.5758 4.88694C16.1521 4.64082 14.6905 4.73162 13.3082 5.15208C11.9259 5.57254 10.6613 6.31096 9.61579 7.30817C8.57027 8.30537 7.77288 9.53363 7.28753 10.8945C6.80219 12.2554 6.64238 13.711 6.82092 15.1448C6.99946 16.5785 7.51138 17.9505 8.31565 19.1508C8.42469 19.3159 8.46405 19.5175 8.42515 19.7115C8.38625 19.9055 8.27225 20.0763 8.10798 20.1867C7.94372 20.297 7.7425 20.3379 7.54817 20.3006C7.35385 20.2632 7.18216 20.1506 7.07053 19.9872C6.13521 18.5923 5.53971 16.9977 5.33176 15.3312C5.1238 13.6647 5.30918 11.9726 5.87303 10.3907C6.43688 8.80871 7.36352 7.38086 8.57867 6.22158C9.79381 5.0623 11.2637 4.20383 12.8704 3.71499C14.4771 3.22616 16.176 3.12055 17.8309 3.40665C19.4858 3.69274 21.0506 4.36257 22.4 5.36244C23.7493 6.36231 24.8457 7.66441 25.6011 9.16435C26.3565 10.6643 26.75 12.3204 26.75 13.9998Z" fill="#DFC4C1"/>
</svg>
