<svg width="340" height="338" viewBox="0 0 340 338" fill="none" xmlns="http://www.w3.org/2000/svg">
<path d="M178.735 114.705L179.692 114.865L223.176 15.1028L196.216 120.538L197.069 120.999L270.59 40.7618L210.856 131.73L211.513 132.444L307.104 80.4258L221.069 147.07L221.458 147.958L328.76 129.797L225.747 164.894L225.827 165.861L333.211 183.524L224.385 183.272L224.146 184.212L319.977 235.786L217.128 200.211L216.598 201.023L290.49 280.919L204.765 213.877L204 214.473L247.946 314.032L188.635 222.788L187.717 223.103L196.956 331.537L170.485 225.978H169.515L143.044 331.537L152.283 223.103L151.365 222.788L92.0537 314.032L136 214.473L135.235 213.877L49.5099 280.919L123.402 201.023L122.872 200.211L20.023 235.786L115.854 184.212L115.615 183.272L6.78854 183.524L114.173 165.861L114.253 164.894L11.2404 129.797L118.542 147.958L118.931 147.07L32.8965 80.4258L128.487 132.444L129.144 131.73L69.4098 40.7618L142.931 120.999L143.784 120.538L116.824 15.1027L160.308 114.865L161.265 114.705L170 6.22907L178.735 114.705Z" stroke="#D8E6DE"/>
</svg>
