<svg width="120" height="120" viewBox="0 0 120 120" fill="none" xmlns="http://www.w3.org/2000/svg">
<path d="M62.7606 40.5102L63.7173 40.6698L77.4594 9.14257L68.9393 42.4626L69.7924 42.9242L93.0268 17.5672L74.1494 46.3154L74.8063 47.029L105.015 30.5901L77.8261 51.6511L78.2158 52.5394L112.125 46.8L79.5711 57.8916L79.6512 58.8583L113.587 64.4404L79.1953 64.3606L78.9572 65.3009L109.242 81.5995L76.7393 70.357L76.2088 71.1691L99.5605 96.418L72.4694 75.2311L71.704 75.8269L85.5921 107.29L66.8483 78.4547L65.9309 78.7696L68.8504 113.038L60.485 79.6784H59.515L51.1496 113.038L54.0691 78.7696L53.1517 78.4547L34.4079 107.29L48.296 75.8269L47.5306 75.2311L20.4395 96.418L43.7912 71.1691L43.2607 70.357L10.7581 81.5995L41.0428 65.3009L40.8047 64.3606L6.41278 64.4404L40.3488 58.8583L40.4289 57.8916L7.8745 46.8L41.7843 52.5394L42.1739 51.6511L14.9848 30.5901L45.1937 47.029L45.8506 46.3154L26.9732 17.5672L50.2076 42.9242L51.0607 42.4626L42.5406 9.14257L56.2827 40.6698L57.2394 40.5102L60 6.22912L62.7606 40.5102Z" stroke="#B1D3BF"/>
</svg>
