<svg width="24" height="24" viewBox="0 0 24 24" fill="none" xmlns="http://www.w3.org/2000/svg">
<path fill-rule="evenodd" clip-rule="evenodd" d="M7.42801 4.57031C7.73112 4.57031 8.02181 4.69072 8.23614 4.90505C8.45046 5.11938 8.57087 5.41007 8.57087 5.71317V7.99888C8.57087 8.30199 8.45046 8.59268 8.23614 8.80701C8.02181 9.02133 7.73112 9.14174 7.42801 9.14174C7.12491 9.14174 6.83422 9.02133 6.61989 8.80701C6.40556 8.59268 6.28516 8.30199 6.28516 7.99888V5.71317C6.28516 5.41007 6.40556 5.11938 6.61989 4.90505C6.83422 4.69072 7.12491 4.57031 7.42801 4.57031V4.57031Z" stroke="#40444E" stroke-linecap="round" stroke-linejoin="round"/>
<path d="M21.1417 6.85547H8.57031" stroke="#40444E" stroke-linecap="round" stroke-linejoin="round"/>
<path d="M6.28599 6.85547H2.85742" stroke="#40444E" stroke-linecap="round" stroke-linejoin="round"/>
<path fill-rule="evenodd" clip-rule="evenodd" d="M7.42801 16C7.73112 16 8.02181 16.1204 8.23614 16.3347C8.45046 16.5491 8.57087 16.8398 8.57087 17.1429V19.4286C8.57087 19.7317 8.45046 20.0224 8.23614 20.2367C8.02181 20.451 7.73112 20.5714 7.42801 20.5714C7.12491 20.5714 6.83422 20.451 6.61989 20.2367C6.40556 20.0224 6.28516 19.7317 6.28516 19.4286V17.1429C6.28516 16.8398 6.40556 16.5491 6.61989 16.3347C6.83422 16.1204 7.12491 16 7.42801 16Z" stroke="#40444E" stroke-linecap="round" stroke-linejoin="round"/>
<path d="M21.1417 18.2852H8.57031" stroke="#40444E" stroke-linecap="round" stroke-linejoin="round"/>
<path d="M6.28599 18.2852H2.85742" stroke="#40444E" stroke-linecap="round" stroke-linejoin="round"/>
<path fill-rule="evenodd" clip-rule="evenodd" d="M16.5725 10.2852C16.8756 10.2852 17.1663 10.4056 17.3807 10.6199C17.595 10.8342 17.7154 11.1249 17.7154 11.428V13.7137C17.7154 14.0168 17.595 14.3075 17.3807 14.5219C17.1663 14.7362 16.8756 14.8566 16.5725 14.8566C16.2694 14.8566 15.9787 14.7362 15.7644 14.5219C15.5501 14.3075 15.4297 14.0168 15.4297 13.7137V11.428C15.4297 11.1249 15.5501 10.8342 15.7644 10.6199C15.9787 10.4056 16.2694 10.2852 16.5725 10.2852V10.2852Z" stroke="#40444E" stroke-linecap="round" stroke-linejoin="round"/>
<path d="M15.4288 12.5703H2.85742" stroke="#40444E" stroke-linecap="round" stroke-linejoin="round"/>
<path d="M21.1434 12.5703H17.7148" stroke="#40444E" stroke-linecap="round" stroke-linejoin="round"/>
</svg>
