<svg width="24" height="24" viewBox="0 0 24 24" fill="none" xmlns="http://www.w3.org/2000/svg">
<path fill-rule="evenodd" clip-rule="evenodd" d="M7.42801 4.57129C7.73112 4.57129 8.02181 4.6917 8.23614 4.90602C8.45046 5.12035 8.57087 5.41104 8.57087 5.71415V7.99986C8.57087 8.30297 8.45046 8.59366 8.23614 8.80798C8.02181 9.02231 7.73112 9.14272 7.42801 9.14272C7.12491 9.14272 6.83422 9.02231 6.61989 8.80798C6.40556 8.59366 6.28516 8.30297 6.28516 7.99986V5.71415C6.28516 5.41104 6.40556 5.12035 6.61989 4.90602C6.83422 4.6917 7.12491 4.57129 7.42801 4.57129V4.57129Z" stroke="white" stroke-linecap="round" stroke-linejoin="round"/>
<path d="M21.1417 6.85693H8.57031" stroke="white" stroke-linecap="round" stroke-linejoin="round"/>
<path d="M6.28599 6.85693H2.85742" stroke="white" stroke-linecap="round" stroke-linejoin="round"/>
<path fill-rule="evenodd" clip-rule="evenodd" d="M7.42801 16C7.73112 16 8.02181 16.1204 8.23614 16.3347C8.45046 16.5491 8.57087 16.8398 8.57087 17.1429V19.4286C8.57087 19.7317 8.45046 20.0224 8.23614 20.2367C8.02181 20.451 7.73112 20.5714 7.42801 20.5714C7.12491 20.5714 6.83422 20.451 6.61989 20.2367C6.40556 20.0224 6.28516 19.7317 6.28516 19.4286V17.1429C6.28516 16.8398 6.40556 16.5491 6.61989 16.3347C6.83422 16.1204 7.12491 16 7.42801 16Z" stroke="white" stroke-linecap="round" stroke-linejoin="round"/>
<path d="M21.1417 18.2856H8.57031" stroke="white" stroke-linecap="round" stroke-linejoin="round"/>
<path d="M6.28599 18.2856H2.85742" stroke="white" stroke-linecap="round" stroke-linejoin="round"/>
<path fill-rule="evenodd" clip-rule="evenodd" d="M16.5725 10.2856C16.8756 10.2856 17.1663 10.4061 17.3807 10.6204C17.595 10.8347 17.7154 11.1254 17.7154 11.4285V13.7142C17.7154 14.0173 17.595 14.308 17.3807 14.5223C17.1663 14.7367 16.8756 14.8571 16.5725 14.8571C16.2694 14.8571 15.9787 14.7367 15.7644 14.5223C15.5501 14.308 15.4297 14.0173 15.4297 13.7142V11.4285C15.4297 11.1254 15.5501 10.8347 15.7644 10.6204C15.9787 10.4061 16.2694 10.2856 16.5725 10.2856V10.2856Z" stroke="white" stroke-linecap="round" stroke-linejoin="round"/>
<path d="M15.4288 12.5713H2.85742" stroke="white" stroke-linecap="round" stroke-linejoin="round"/>
<path d="M21.1434 12.5713H17.7148" stroke="white" stroke-linecap="round" stroke-linejoin="round"/>
</svg>
