<svg width="32" height="32" viewBox="0 0 32 32" fill="none" xmlns="http://www.w3.org/2000/svg">
<path d="M16 4.5C13.7255 4.5 11.5021 5.17446 9.61095 6.4381C7.71978 7.70174 6.2458 9.49779 5.37539 11.5991C4.50498 13.7005 4.27724 16.0128 4.72097 18.2435C5.1647 20.4743 6.25997 22.5234 7.86828 24.1317C9.47658 25.74 11.5257 26.8353 13.7565 27.279C15.9873 27.7228 18.2995 27.495 20.4009 26.6246C22.5022 25.7542 24.2983 24.2802 25.5619 22.3891C26.8255 20.4979 27.5 18.2745 27.5 16C27.4967 12.951 26.284 10.0279 24.1281 7.87193C21.9721 5.71598 19.049 4.50331 16 4.5ZM16 26.5C13.9233 26.5 11.8932 25.8842 10.1665 24.7304C8.4398 23.5767 7.09399 21.9368 6.29927 20.0182C5.50455 18.0996 5.29662 15.9884 5.70176 13.9516C6.1069 11.9148 7.10693 10.0438 8.57538 8.57538C10.0438 7.10693 11.9148 6.1069 13.9516 5.70176C15.9884 5.29661 18.0996 5.50455 20.0182 6.29927C21.9368 7.09399 23.5767 8.4398 24.7304 10.1665C25.8842 11.8932 26.5 13.9233 26.5 16C26.4967 18.7838 25.3894 21.4526 23.421 23.421C21.4526 25.3894 18.7838 26.4967 16 26.5ZM21.3 10.7C21.3469 10.7454 21.3841 10.7998 21.4096 10.86C21.435 10.9201 21.4482 10.9847 21.4482 11.05C21.4482 11.1153 21.435 11.1799 21.4096 11.24C21.3841 11.3002 21.3469 11.3546 21.3 11.4L16.35 16.35C16.3046 16.3969 16.2502 16.4341 16.19 16.4596C16.1299 16.485 16.0653 16.4982 16 16.4982C15.9347 16.4982 15.8701 16.485 15.81 16.4596C15.7499 16.4341 15.6955 16.3969 15.65 16.35C15.6031 16.3046 15.5659 16.2502 15.5404 16.19C15.515 16.1299 15.5019 16.0653 15.5019 16C15.5019 15.9347 15.515 15.8701 15.5404 15.81C15.5659 15.7498 15.6031 15.6954 15.65 15.65L20.6 10.7C20.6455 10.6531 20.6999 10.6159 20.76 10.5904C20.8201 10.565 20.8847 10.5518 20.95 10.5518C21.0153 10.5518 21.0799 10.565 21.14 10.5904C21.2002 10.6159 21.2546 10.6531 21.3 10.7ZM12.5 1C12.5 0.867392 12.5527 0.740215 12.6465 0.646447C12.7402 0.552678 12.8674 0.5 13 0.5H19C19.1326 0.5 19.2598 0.552678 19.3536 0.646447C19.4473 0.740215 19.5 0.867392 19.5 1C19.5 1.13261 19.4473 1.25979 19.3536 1.35355C19.2598 1.44732 19.1326 1.5 19 1.5H13C12.8674 1.5 12.7402 1.44732 12.6465 1.35355C12.5527 1.25979 12.5 1.13261 12.5 1Z" fill="#181A1E"/>
</svg>
