<svg width="24" height="24" viewBox="0 0 24 24" fill="none" xmlns="http://www.w3.org/2000/svg">
<path d="M19.4826 10.3669L17.0397 2.09062C17.0053 1.97422 16.9342 1.87206 16.8369 1.79941C16.7397 1.72675 16.6216 1.6875 16.5002 1.6875H7.50018C7.3788 1.68751 7.26067 1.72678 7.16345 1.79946C7.06622 1.87213 6.99512 1.9743 6.96074 2.09072L4.51781 10.367C4.32661 11.0133 4.37403 11.7068 4.6514 12.3211C5.25296 13.6459 6.20095 14.7839 7.39536 15.6148C8.58978 16.4458 9.98633 16.939 11.4377 17.0423V21.1875H8.25018C8.101 21.1875 7.95792 21.2468 7.85243 21.3523C7.74695 21.4577 7.68768 21.6008 7.68768 21.75C7.68768 21.8992 7.74695 22.0423 7.85243 22.1477C7.95792 22.2532 8.101 22.3125 8.25018 22.3125H15.7502C15.8994 22.3125 16.0424 22.2532 16.1479 22.1477C16.2534 22.0423 16.3127 21.8992 16.3127 21.75C16.3127 21.6008 16.2534 21.4577 16.1479 21.3523C16.0424 21.2468 15.8994 21.1875 15.7502 21.1875H12.5627V17.0423C14.014 16.939 15.4106 16.4458 16.605 15.6148C17.7994 14.7839 18.7474 13.6459 19.349 12.3211C19.6264 11.7068 19.6738 11.0132 19.4826 10.3668L19.4826 10.3669ZM7.92056 2.8125H16.0796L18.1173 9.71569C17.1179 10.1749 15.0959 10.6691 12.2517 9.24694C9.64921 7.94569 7.60931 8.05162 6.25743 8.44669L7.92056 2.8125ZM18.324 11.8572C17.7739 13.0735 16.8848 14.1053 15.7631 14.8291C14.6415 15.5528 13.335 15.9377 12.0001 15.9377C10.6652 15.9377 9.35867 15.5528 8.23703 14.8291C7.11539 14.1053 6.22625 13.0735 5.67618 11.8572C5.51003 11.4888 5.48178 11.0729 5.59659 10.6853L5.85946 9.79491C6.90609 9.30459 8.91478 8.83622 11.7486 10.2531C13.3348 11.0463 14.7151 11.3119 15.8527 11.3118C16.7382 11.3179 17.6158 11.1455 18.4331 10.805C18.5107 11.1583 18.4724 11.5273 18.3239 11.8572H18.324Z" fill="#181A1E"/>
</svg>
