<svg width="16" height="16" viewBox="0 0 16 16" fill="none" xmlns="http://www.w3.org/2000/svg">
<rect width="16" height="16" fill="#E8DEDC"/>
<path d="M5.94547 7.92601H7.01985V10.5093C6.7054 10.7748 6.33854 10.9785 5.91927 11.1205C5.5 11.2624 5.06908 11.3334 4.62652 11.3334C4.00343 11.3334 3.4415 11.1914 2.9407 10.9075C2.4399 10.6174 2.04684 10.2192 1.7615 9.71304C1.47616 9.20687 1.3335 8.63588 1.3335 8.00008C1.3335 7.36428 1.47616 6.79329 1.7615 6.28712C2.04684 5.78095 2.4399 5.38588 2.9407 5.10193C3.44732 4.81181 4.01508 4.66675 4.64399 4.66675C5.15643 4.66675 5.62228 4.75625 6.04155 4.93527C6.46082 5.11428 6.81313 5.37662 7.09847 5.7223L6.38221 6.46304C5.91636 5.96922 5.35442 5.7223 4.69639 5.7223C4.26548 5.7223 3.88115 5.81798 3.5434 6.00934C3.21148 6.2007 2.94943 6.46922 2.75727 6.8149C2.57093 7.16058 2.47776 7.55564 2.47776 8.00008C2.47776 8.43218 2.57093 8.82107 2.75727 9.16675C2.94943 9.51243 3.21148 9.78403 3.5434 9.98156C3.88115 10.1791 4.26257 10.2779 4.68766 10.2779C5.16516 10.2779 5.58443 10.1667 5.94547 9.94453V7.92601Z" fill="white"/>
<path d="M11.3738 11.3334C10.7507 11.3334 10.1888 11.1914 9.68799 10.9075C9.1872 10.6174 8.79413 10.2192 8.50879 9.71304C8.22346 9.2007 8.08079 8.62971 8.08079 8.00008C8.08079 7.37045 8.22346 6.80255 8.50879 6.29638C8.79413 5.78403 9.1872 5.38588 9.68799 5.10193C10.1888 4.81181 10.7507 4.66675 11.3738 4.66675C11.9969 4.66675 12.5588 4.81181 13.0596 5.10193C13.5604 5.38588 13.9535 5.78095 14.2388 6.28712C14.5242 6.79329 14.6668 7.36428 14.6668 8.00008C14.6668 8.63588 14.5242 9.20687 14.2388 9.71304C13.9535 10.2192 13.5604 10.6174 13.0596 10.9075C12.5588 11.1914 11.9969 11.3334 11.3738 11.3334ZM11.3738 10.2779C11.7814 10.2779 12.1483 10.1822 12.4744 9.99082C12.8005 9.79329 13.0567 9.52169 13.2431 9.17601C13.4294 8.82416 13.5226 8.43218 13.5226 8.00008C13.5226 7.56798 13.4294 7.17909 13.2431 6.83341C13.0567 6.48156 12.8005 6.20996 12.4744 6.0186C12.1483 5.82107 11.7814 5.7223 11.3738 5.7223C10.9662 5.7223 10.5993 5.82107 10.2732 6.0186C9.94713 6.20996 9.6909 6.48156 9.50456 6.83341C9.31822 7.17909 9.22505 7.56798 9.22505 8.00008C9.22505 8.43218 9.31822 8.82416 9.50456 9.17601C9.6909 9.52169 9.94713 9.79329 10.2732 9.99082C10.5993 10.1822 10.9662 10.2779 11.3738 10.2779Z" fill="white"/>
</svg>
